<?xml version="1.0" encoding="UTF-8"?>
<svg id="_レイヤー_2" data-name="レイヤー 2" xmlns="http://www.w3.org/2000/svg" viewBox="0 0 297.25 78.27">
  <defs>
    <style>
      .cls-1 {
        fill: #fff;
      }

      .cls-2 {
        fill: #231815;
      }
    </style>
  </defs>
  <g id="_レイヤー_2-2" data-name="レイヤー 2">
    <g>
      <g>
        <circle class="cls-2" cx="32.32" cy="32.32" r="32.31"/>
        <g>
          <circle class="cls-2" cx="66.11" cy="37.43" r="19.48"/>
          <path class="cls-2" d="M66.11,57.09c-10.84,0-19.65-8.82-19.65-19.65s8.82-19.65,19.65-19.65,19.65,8.82,19.65,19.65-8.82,19.65-19.65,19.65Zm0-38.96c-10.64,0-19.3,8.66-19.3,19.3s8.66,19.3,19.3,19.3,19.3-8.66,19.3-19.3-8.66-19.3-19.3-19.3Z"/>
        </g>
        <path class="cls-1" d="M66.11,59.02c-11.9,0-21.59-9.68-21.59-21.59s9.68-21.59,21.59-21.59,21.59,9.68,21.59,21.59-9.68,21.59-21.59,21.59Zm0-38.96c-9.58,0-17.37,7.79-17.37,17.37s7.79,17.37,17.37,17.37,17.37-7.79,17.37-17.37-7.79-17.37-17.37-17.37Z"/>
        <rect class="cls-1" x="44.52" y="11.13" width="4.22" height="67.14"/>
      </g>
      <g>
        <path d="M105.06,61.04V13.89h20.87c9.51,0,15.48,5.96,15.48,15.12s-5.96,14.91-15.48,14.91h-9.87v17.11h-11Zm19.67-25.91c4.69,0,7.03-2.48,7.03-6.18,0-3.48-2.34-5.96-7.03-5.96h-8.66v12.14h8.66Z"/>
        <path d="M143.4,61.04V26.1h9.66v3.19c3.05-3.9,6.25-4.12,9.8-4.12h.99v10.51c-.85-.14-1.7-.21-2.56-.21-5.11,0-7.6,2.06-7.6,7.31v18.25h-10.29Z"/>
        <path d="M165.41,43.57c0-11.08,6.96-18.39,18.18-18.39s17.96,7.24,17.96,18.39-6.96,18.39-17.96,18.39-18.18-7.53-18.18-18.39Zm25.77,0c0-6.67-2.49-9.66-7.6-9.66s-7.6,2.98-7.6,9.66,2.49,9.8,7.6,9.8,7.6-3.12,7.6-9.8Z"/>
        <path d="M206.95,61.04v-27.69h-5.25v-7.24h5.25c0-8.52,4.9-12.78,14.98-12.78v8.31c-4.19,0-4.9,.92-4.9,4.47h5.11v7.24h-5.11v27.69h-10.08Z"/>
        <path d="M228.67,21.92V13.32h10.29v8.59h-10.29Zm0,39.12V26.1h10.29V61.04h-10.29Z"/>
        <path d="M247.55,61.04V13.32h10.29V61.04h-10.29Z"/>
        <path d="M273.97,46.2c.28,4.4,2.98,7.6,6.89,7.6,2.56,0,4.9-1.21,5.4-3.05h10.58c-2.13,7.17-7.95,11.22-15.48,11.22-11.79,0-17.68-6.39-17.68-19.03,0-10.79,6.25-17.75,17.04-17.75s16.54,6.6,16.54,19.52v1.49h-23.29Zm12.99-6.18c-.28-4.62-2.84-6.67-6.39-6.67s-6.04,2.27-6.39,6.67h12.78Z"/>
      </g>
    </g>
  </g>
</svg>