<?xml version="1.0" encoding="UTF-8"?>
<svg id="_レイヤー_2" data-name="レイヤー 2" xmlns="http://www.w3.org/2000/svg" viewBox="0 0 179 179">
  <defs>
    <style>
      .cls-1 {
        fill: none;
        stroke: #585f60;
        stroke-miterlimit: 10;
      }
    </style>
  </defs>
  <g id="_レイヤー_2-2" data-name="レイヤー 2">
    <g>
      <circle class="cls-1" cx="89.5" cy="89.5" r="89"/>
      <g>
        <path d="M52.63,88.91c0-4.06,2.55-6.73,6.66-6.73s6.58,2.65,6.58,6.73-2.55,6.73-6.58,6.73-6.66-2.76-6.66-6.73Zm9.44,0c0-2.44-.91-3.54-2.78-3.54s-2.78,1.09-2.78,3.54,.91,3.59,2.78,3.59,2.78-1.14,2.78-3.59Z"/>
        <path d="M72.73,101.36v-18.85h3.61l.03,1.51c.75-1.27,2-1.85,3.33-1.85,3.22,0,5.54,2.6,5.54,6.89,0,3.8-1.9,6.58-5.2,6.58-1.53,0-2.81-.55-3.61-1.9v7.62h-3.69Zm8.68-12.53c0-2.31-1.01-3.59-2.55-3.59s-2.57,1.25-2.57,3.48c0,2.57,.94,3.72,2.57,3.72s2.55-1.12,2.55-3.61Z"/>
        <path d="M92.13,101.36v-18.85h3.61l.03,1.51c.75-1.27,2-1.85,3.33-1.85,3.22,0,5.54,2.6,5.54,6.89,0,3.8-1.9,6.58-5.2,6.58-1.53,0-2.81-.55-3.61-1.9v7.62h-3.69Zm8.68-12.53c0-2.31-1.01-3.59-2.55-3.59s-2.57,1.25-2.57,3.48c0,2.57,.94,3.72,2.57,3.72s2.55-1.12,2.55-3.61Z"/>
        <path d="M111.24,88.91c0-4.06,2.55-6.73,6.66-6.73s6.58,2.65,6.58,6.73-2.55,6.73-6.58,6.73-6.66-2.76-6.66-6.73Zm9.44,0c0-2.44-.91-3.54-2.78-3.54s-2.78,1.09-2.78,3.54,.91,3.59,2.78,3.59,2.78-1.14,2.78-3.59Z"/>
      </g>
    </g>
  </g>
</svg>